<svg width="33" height="32" viewBox="0 0 33 32" fill="none" xmlns="http://www.w3.org/2000/svg">
<path d="M26.38 20.6942L24.435 18.7491C23.9882 18.2681 23.7293 17.6425 23.7055 16.9864V13.157C23.7055 8.23345 20.4232 4.03933 14.5879 4.03933C8.7526 4.03933 5.47025 8.11188 5.47025 13.157V17.4119C5.45899 17.7966 5.3077 18.1641 5.04476 18.4452L2.79574 20.6942C2.56668 20.9187 2.4356 21.2246 2.43103 21.5452V25.9217C2.43103 26.2441 2.55911 26.5533 2.7871 26.7813C3.01508 27.0093 3.3243 27.1374 3.64672 27.1374H10.3938C10.5629 28.1272 11.0767 29.0254 11.8443 29.6729C12.6118 30.3205 13.5837 30.6756 14.5879 30.6756C15.5921 30.6756 16.564 30.3205 17.3315 29.6729C18.0991 29.0254 18.6129 28.1272 18.782 27.1374H25.5291C25.8515 27.1374 26.1607 27.0093 26.3887 26.7813C26.6167 26.5533 26.7448 26.2441 26.7448 25.9217V21.5452C26.7402 21.2246 26.6091 20.9187 26.38 20.6942Z" fill="#53ACFF"/>
<path fill-rule="evenodd" clip-rule="evenodd" d="M25.4117 15.0588C29.5701 15.0588 32.9411 11.6878 32.9411 7.52941C32.9411 3.37103 29.5701 0 25.4117 0C21.2534 0 17.8823 3.37103 17.8823 7.52941C17.8823 11.6878 21.2534 15.0588 25.4117 15.0588Z" fill="#118F4B"/>
</svg>
